<svg width="32" height="32" viewBox="0 0 32 32" fill="none" xmlns="http://www.w3.org/2000/svg">
<path fill-rule="evenodd" clip-rule="evenodd" d="M31.212 4.59067C32.2622 3.54049 32.2622 1.83782 31.212 0.787635C30.1618 -0.262545 28.4591 -0.262545 27.4089 0.787635L15.9998 12.1968L4.59067 0.787645C3.54049 -0.262535 1.83782 -0.262535 0.787635 0.787645C-0.262545 1.83783 -0.262545 3.5405 0.787635 4.59068L12.1968 15.9998L0.787671 27.4089C-0.262509 28.4591 -0.262509 30.1618 0.787671 31.2119C1.83785 32.2621 3.54053 32.2621 4.59071 31.2119L15.9998 19.8029L27.4089 31.212C28.4591 32.2621 30.1618 32.2621 31.2119 31.212C32.2621 30.1618 32.2621 28.4591 31.2119 27.4089L19.8028 15.9998L31.212 4.59067Z" fill="white"/>
</svg>
